<?xml version="1.0" encoding="UTF-8"?>
<svg xmlns="http://www.w3.org/2000/svg" width="1200" height="300" viewBox="0 0 1200 300">
  <defs>
    <linearGradient id="g" x1="0" x2="1">
      <stop offset="0%" stop-color="#FFD54A"/>
      <stop offset="100%" stop-color="#FFB300"/>
    </linearGradient>
  </defs>
  <rect width="100%" height="100%" fill="transparent"/>
  <!-- simple trophy icon -->
  <g transform="translate(150,20)">
    <rect x="0" y="160" width="180" height="20" rx="8" fill="#333" opacity="0.9"/>
    <rect x="60" y="120" width="60" height="40" rx="6" fill="#444" opacity="0.9"/>
    <path d="M90 120 v-70 a40 40 0 0 0 -40 -40 h-20 a60 60 0 0 1 60 60 v50 z" fill="url(#g)"/>
    <path d="M90 120 v-70 a40 40 0 0 1 40 -40 h20 a60 60 0 0 0 -60 60 v50 z" fill="url(#g)"/>
    <circle cx="90" cy="80" r="26" fill="#fff" opacity="0.12"/>
    <text x="90" y="195" font-family="Verdana, Arial" font-size="22" fill="#222" text-anchor="middle">Sanjay767676</text>
  </g>
  <g transform="translate(420,20)">
    <rect x="0" y="160" width="180" height="20" rx="8" fill="#333" opacity="0.9"/>
    <rect x="60" y="120" width="60" height="40" rx="6" fill="#444" opacity="0.9"/>
    <path d="M90 120 v-70 a40 40 0 0 0 -40 -40 h-20 a60 60 0 0 1 60 60 v50 z" fill="url(#g)"/>
    <path d="M90 120 v-70 a40 40 0 0 1 40 -40 h20 a60 60 0 0 0 -60 60 v50 z" fill="url(#g)"/>
    <circle cx="90" cy="80" r="26" fill="#fff" opacity="0.12"/>
    <text x="90" y="195" font-family="Verdana, Arial" font-size="22" fill="#222" text-anchor="middle">Trophies</text>
  </g>
  <g transform="translate(690,20)">
    <rect x="0" y="160" width="180" height="20" rx="8" fill="#333" opacity="0.9"/>
    <rect x="60" y="120" width="60" height="40" rx="6" fill="#444" opacity="0.9"/>
    <path d="M90 120 v-70 a40 40 0 0 0 -40 -40 h-20 a60 60 0 0 1 60 60 v50 z" fill="url(#g)"/>
    <path d="M90 120 v-70 a40 40 0 0 1 40 -40 h20 a60 60 0 0 0 -60 60 v50 z" fill="url(#g)"/>
    <circle cx="90" cy="80" r="26" fill="#fff" opacity="0.12"/>
    <text x="90" y="195" font-family="Verdana, Arial" font-size="22" fill="#222" text-anchor="middle">Open Source</text>
  </g>
</svg>
